<svg width="40" height="50" viewBox="0 0 40 50" fill="none" xmlns="http://www.w3.org/2000/svg">
<path fill-rule="evenodd" clip-rule="evenodd" d="M30 11C30 12.1046 29.1046 13 28 13C26.8954 13 26 12.1046 26 11C26 9.89543 26.8954 9 28 9C29.1046 9 30 9.89543 30 11ZM31.874 12C31.4299 13.7252 29.8638 15 28 15C26.1361 15 24.57 13.7252 24.126 12H0.999987V10H24.126C24.57 8.27477 26.1361 7 28 7C29.8638 7 31.4299 8.27477 31.874 10H38V12H31.874ZM30 38C30 39.1046 29.1046 40 28 40C26.8954 40 26 39.1046 26 38C26 36.8954 26.8954 36 28 36C29.1046 36 30 36.8954 30 38ZM28 42C29.8638 42 31.4299 40.7252 31.874 39H38V37H31.874C31.4299 35.2748 29.8638 34 28 34C26.1361 34 24.57 35.2748 24.126 37H0.999987V39H24.126C24.57 40.7252 26.1361 42 28 42ZM15 22C16.1046 22 17 21.1046 17 20C17 18.8954 16.1046 18 15 18C13.8954 18 13 18.8954 13 20C13 21.1046 13.8954 22 15 22ZM18.874 21C18.4299 22.7252 16.8638 24 15 24C13.1361 24 11.57 22.7252 11.126 21H0.999987V19H11.126C11.57 17.2748 13.1361 16 15 16C16.8638 16 18.4299 17.2748 18.874 19H38V21H18.874ZM9.00004 29.0007C8.99992 27.8961 9.89525 27.0006 10.9998 27.0004C12.1044 27.0003 12.9999 27.8956 13 29.0002C13.0002 30.1048 12.1048 31.0003 11.0003 31.0004C9.89569 31.0006 9.00016 30.1052 9.00004 29.0007ZM7.12595 28.0008C7.56982 26.2756 9.13577 25.0006 10.9996 25.0004C12.8634 25.0002 14.4297 26.2748 14.8739 28L37.9999 27.9975L38.0001 29.9975L14.8741 30C14.4303 31.7253 12.8643 33.0002 11.0005 33.0004C9.13662 33.0006 7.57038 31.726 7.12616 30.0008L1.0001 30.0015L0.999878 28.0015L7.12595 28.0008Z" fill="black"/>
</svg>
