<svg width="18" height="18" viewBox="0 0 18 18" fill="none" xmlns="http://www.w3.org/2000/svg">
<circle cx="9" cy="9" r="8.5" stroke="#F36769"/>
<path d="M11.64 10.816C11.64 11.44 11.428 11.964 11.004 12.388C10.588 12.804 10.04 13.048 9.36 13.12V14.2H8.64V13.132C7.992 13.092 7.44 12.92 6.984 12.616C6.528 12.312 6.2 11.904 6 11.392L6.72 10.972C7.016 11.788 7.656 12.236 8.64 12.316V9.00402C7.992 8.78002 7.476 8.52402 7.092 8.23602C6.644 7.90002 6.42 7.38402 6.42 6.68802C6.42 6.06402 6.628 5.55602 7.044 5.16402C7.476 4.75602 8.008 4.52402 8.64 4.46802V3.40002H9.36V4.48002C9.84 4.53602 10.26 4.69602 10.62 4.96002C10.988 5.22402 11.268 5.58002 11.46 6.02802L10.752 6.42402C10.504 5.79202 10.04 5.42002 9.36 5.30802V8.42802C10.032 8.65202 10.556 8.91602 10.932 9.22002C11.404 9.58802 11.64 10.12 11.64 10.816ZM7.26 6.68802C7.26 7.04002 7.364 7.32802 7.572 7.55202C7.788 7.76802 8.144 7.97202 8.64 8.16402V5.29602C8.224 5.34402 7.888 5.49202 7.632 5.74002C7.384 5.98802 7.26 6.30402 7.26 6.68802ZM9.36 9.25602V12.304C9.808 12.24 10.16 12.076 10.416 11.812C10.672 11.548 10.8 11.216 10.8 10.816C10.8 10.44 10.684 10.136 10.452 9.90402C10.228 9.67202 9.864 9.45602 9.36 9.25602Z" fill="#F36769"/>
</svg>
