<svg width="25" height="20" viewBox="0 0 25 20" fill="none" xmlns="http://www.w3.org/2000/svg">
<path d="M0.976074 0H24.9761V20H0.976074V0Z" fill="#012169"/>
<path d="M0.976074 0V2.23438L22.2925 20H24.9761V17.7656L3.65967 0H0.976074ZM24.9761 0V2.23438L3.65967 20H0.976074V17.7656L22.2925 0H24.9761Z" fill="white"/>
<path d="M10.9769 0V20H14.9753V0H10.9769ZM0.976074 6.66797V13.332H24.9761V6.66797H0.976074Z" fill="white"/>
<path d="M0.976074 8V12H24.9761V8H0.976074ZM11.7761 0V20H14.1761V0H11.7761ZM0.976074 20L8.97529 13.332H10.7659L2.76436 20H0.976074ZM0.976074 0L8.97529 6.66797H7.18701L0.976074 1.49219V0ZM15.1886 6.66797L23.1878 0H24.9761L16.9769 6.66797H15.1886ZM24.9761 20L16.9769 13.332H18.7651L24.9761 18.5078V20Z" fill="#C8102E"/>
<rect x="1.5" y="0.5" width="23" height="19" stroke="black" stroke-opacity="0.11"/>
</svg>
