<svg width="52" height="40" viewBox="0 0 52 40" fill="none" xmlns="http://www.w3.org/2000/svg">
<g clip-path="url(#clip0_3_708)">
<path d="M31.2565 26.0112C30.9903 22.6798 26.664 17.3389 25.6139 16.0665C21.2028 10.7286 9.11896 0.816064 7.11231 0.00878906C6.5536 0.854088 6.00952 7.51996 6.23476 14.0688C3.70158 13.3551 1.82363 13.4838 0.185547 13.9665C4.31878 16.9382 5.34844 18.2982 8.04835 25.6953C10.7483 33.0924 17.7657 38.5649 19.9391 39.7875C19.9391 39.7875 14.7586 34.6543 12.9743 29.4743C11.0291 23.8263 11.4971 10.6291 11.4971 10.6291C11.4971 10.6291 18.8948 16.5375 20.957 18.9973C20.957 18.9973 24.4994 22.9138 25.3799 24.4815C26.5295 26.5026 27.2958 28.2839 26.936 29.8779C26.2691 32.993 22.952 32.2384 26.1697 32.4841C29.1124 32.4811 31.6631 30.8227 31.2565 26.0112Z" fill="#F36769"/>
<path d="M20.7494 26.0112C21.0185 22.6798 25.3448 17.3389 26.392 16.0665C30.8031 10.7286 42.8928 0.816064 44.8994 0.00878906C45.4581 0.854088 45.9817 7.51996 45.7594 14.0688C48.2955 13.3551 50.1705 13.4838 51.8145 13.9665C47.6812 16.9382 46.6486 18.2982 43.9517 25.6983C41.2547 33.0983 34.2343 38.5679 32.0521 39.7875C32.0521 39.7875 37.2326 34.6543 39.0169 29.4743C40.9622 23.8263 40.4941 10.6291 40.4941 10.6291C40.4941 10.6291 33.1023 16.5375 31.043 18.9973C31.043 18.9973 27.5006 22.9138 26.6201 24.4815C25.4706 26.5026 24.7042 28.2839 25.064 29.8779C25.1504 30.4326 25.3817 30.9545 25.7346 31.3911C26.0875 31.8276 26.5493 32.1633 27.0735 32.3641L27.2081 32.4109C26.7489 32.4758 26.2851 32.5012 25.8216 32.487C22.8906 32.4811 20.3574 30.8227 20.7494 26.0112Z" fill="#F36769"/>
</g>
<defs>
<clipPath id="clip0_3_708">
<rect width="52" height="40" fill="white"/>
</clipPath>
</defs>
</svg>
